<?xml version="1.0" encoding="utf-8"?>
<!-- Generator: Adobe Illustrator 27.4.0, SVG Export Plug-In . SVG Version: 6.00 Build 0)  -->
<svg version="1.1" xmlns="http://www.w3.org/2000/svg" xmlns:xlink="http://www.w3.org/1999/xlink" x="0px" y="0px"
	 viewBox="0 0 2000 2000" style="enable-background:new 0 0 2000 2000;" xml:space="preserve">
<style type="text/css">
	.st0{enable-background:new    ;}
	.st1{fill:#DC2929;}
	.st2{fill:#F24949;}
	.st3{fill:#891616;}
	.st4{fill:#FFFFFF;}
</style>
<g id="矩形_2_00000005966853934182937660000000460912000863498905_" class="st0">
	<g id="矩形_2">
		<g>
			<path class="st1" d="M1715.39,414.79L1125.84,74.66c-72.9-42.06-191.08-42.06-263.98,0L272.3,414.79
				c-72.9,42.06-72.9,110.24,0,152.3l589.55,340.13c72.9,42.06,191.08,42.06,263.98,0l589.55-340.13
				C1788.29,525.03,1788.29,456.84,1715.39,414.79z"/>
		</g>
	</g>
</g>
<g id="矩形_2_拷贝_00000054267626409645018180000008488099146321646755_" class="st0">
	<g id="矩形_2_拷贝_00000116938372068430455450000015815172011475107762_">
		<g>
			<path class="st2" d="M1743.04,612.49L1153.7,953c-72.87,42.1-131.96,144.46-131.99,228.61l-0.22,680.63
				c-0.03,84.16,59.02,118.25,131.89,76.15l589.34-340.5c72.87-42.1,131.96-144.46,131.99-228.61l0.22-680.63
				C1874.96,604.48,1815.91,570.39,1743.04,612.49z"/>
		</g>
	</g>
</g>
<g id="矩形_2_拷贝_2_00000035529572911038602290000007291955494702131623_" class="st0">
	<g id="矩形_2_拷贝_2">
		<g>
			<path class="st3" d="M978.29,1182.06c-0.03-84.16-59.12-186.51-131.99-228.61L256.96,612.94
				c-72.87-42.1-131.92-8.01-131.89,76.15l0.22,680.63c0.03,84.16,59.12,186.51,131.99,228.61l589.34,340.51
				c72.87,42.1,131.92,8.01,131.89-76.15L978.29,1182.06z"/>
		</g>
	</g>
</g>
<g id="组_1_拷贝_2_00000183948175979401198720000017544056188669654157_">
	<g id="矩形_4_拷贝_3_00000000909282264410346670000016140537972705818788_">
		<g>
			<path class="st4" d="M780.67,1368.8l-20.59-11.88c0,0,0,0-0.01,0l-241.54-139.38l-0.02,92.35l162.35,93.68l-0.05,224.01
				l-261.34-150.81l0.12-540.37l424.48,244.95l0.02-92.35L340.42,798.35c0,0,0,0,0,0l-20.59-11.88
				c-43.74-25.24-79.2-4.76-79.21,45.73l-0.12,542.2c-0.01,50.5,35.44,111.89,79.17,137.13l20.59,11.88c0,0,0,0,0.01,0l419.72,242.2
				c0,0,0,0,0,0l5.06,2.92l5.23,3.02l0,0l10.3,5.94c43.74,25.24,79.2,4.76,79.21-45.73l0.05-225.84
				C859.86,1455.44,824.41,1394.04,780.67,1368.8z"/>
		</g>
	</g>
	<g id="矩形_4_拷贝_2_00000158730060831253268590000004429460762587217076_">
		<g>
			<path class="st4" d="M620.92,541.91l467.71-270.23l424.18,245.08l79.93-46.18l-513.61-296.75l0,0l-10.29-5.94
				c-43.71-25.25-114.57-25.25-158.28,0L441.28,439.03c-43.71,25.25-43.71,66.2,0,91.45l20.58,11.89c0,0,0,0,0,0l429.72,248.28l0,0
				l10.29,5.94c43.71,25.25,114.57,25.25,158.28,0l195.47-112.94c43.71-25.25,43.71-66.2,0-91.45l-20.58-11.89c0,0,0,0,0,0
				L993.67,440.86l-79.93,46.18l162.23,93.73L882.08,692.8L620.92,541.91z"/>
		</g>
	</g>
</g>
<g id="椭圆_1_拷贝_00000113320789620629410300000014048285132912165809_" class="st0">
	<g id="椭圆_1_拷贝">
		<g>
			
				<ellipse transform="matrix(0.5 -0.866 0.866 0.5 -351.8524 1963.3359)" class="st4" cx="1524.37" cy="1286.38" rx="270.56" ry="156.02"/>
		</g>
	</g>
</g>
</svg>
