<?xml version="1.0" encoding="utf-8"?>
<!-- Generator: Adobe Illustrator 27.4.0, SVG Export Plug-In . SVG Version: 6.00 Build 0)  -->
<svg version="1.1" xmlns="http://www.w3.org/2000/svg" xmlns:xlink="http://www.w3.org/1999/xlink" x="0px" y="0px"
	 viewBox="0 0 2342.29 722.78" style="enable-background:new 0 0 2342.29 722.78;" xml:space="preserve">
<style type="text/css">
	.st0{enable-background:new    ;}
	.st1{fill:#DC2929;}
	.st2{fill:#F24949;}
	.st3{fill:#891616;}
	.st4{fill:#FFFFFF;}
</style>
<g id="矩形_2_00000005966853934182937660000000460912000863498905_" class="st0">
	<g id="矩形_2">
		<g>
			<path class="st1" d="M603.04,140.37L380.38,11.91c-27.53-15.88-72.17-15.88-99.7,0L58.02,140.37
				c-27.53,15.88-27.53,41.64,0,57.52l222.66,128.46c27.53,15.88,72.17,15.88,99.7,0l222.66-128.46
				C630.57,182,630.57,156.25,603.04,140.37z"/>
		</g>
	</g>
</g>
<g id="矩形_2_拷贝_00000054267626409645018180000008488099146321646755_" class="st0">
	<g id="矩形_2_拷贝_00000142169632106286022640000010853748559383228060_">
		<g>
			<path class="st2" d="M613.48,215.04l-222.58,128.6c-27.52,15.9-49.84,54.56-49.85,86.34l-0.08,257.06
				c-0.01,31.78,22.29,44.66,49.81,28.76l222.58-128.6c27.52-15.9,49.84-54.56,49.85-86.34l0.08-257.06
				C663.31,212.01,641,199.14,613.48,215.04z"/>
		</g>
	</g>
</g>
<g id="矩形_2_拷贝_2_00000035529572911038602290000007291955494702131623_" class="st0">
	<g id="矩形_2_拷贝_2">
		<g>
			<path class="st3" d="M324.66,430.15c-0.01-31.78-22.33-70.44-49.85-86.34L52.23,215.21c-27.52-15.9-49.82-3.03-49.81,28.76
				L2.5,501.02c0.01,31.78,22.33,70.44,49.85,86.34l222.58,128.6c27.52,15.9,49.82,3.02,49.81-28.76L324.66,430.15z"/>
		</g>
	</g>
</g>
<g id="组_1_拷贝_2_00000183948175979401198720000017544056188669654157_">
	<g id="矩形_4_拷贝_3_00000078003966348788618960000015408016320775527084_">
		<g>
			<path class="st4" d="M250.02,500.68l-3.89-2.24l-95.11-54.88l-0.01,34.88l61.31,35.38l-0.02,84.6l-98.7-56.96l0.05-204.08
				l160.31,92.51l0.01-34.88L79.86,282.99l0,0l-3.89-2.24c-16.52-9.53-29.91-1.8-29.92,17.27l-0.05,204.78
				c0,19.07,13.38,42.26,29.9,51.79l7.78,4.49c0,0,0,0,0,0l158.52,91.47c0,0,0,0,0,0l2.11,1.21l1.78,1.03l0,0l3.89,2.24
				c16.52,9.53,29.91,1.8,29.92-17.27l0.02-85.29C279.93,533.4,266.54,510.21,250.02,500.68z"/>
		</g>
	</g>
	<g id="矩形_4_拷贝_2_00000015355952153376213780000001024986923362200743_">
		<g>
			<path class="st4" d="M189.69,188.38L366.33,86.32l160.2,92.56l30.19-17.44L362.74,49.37h0l-3.89-2.24
				c-16.51-9.54-43.27-9.54-59.78,0l-177.24,102.4c-16.51,9.54-16.51,25,0,34.54l7.77,4.49c0,0,0,0,0.01,0l158.4,91.52c0,0,0,0,0,0
				l7.77,4.49c16.51,9.54,43.27,9.54,59.78,0l73.82-42.65c16.51-9.54,16.51-25,0-34.54l-7.77-4.49c0,0,0,0,0,0l-91.16-52.67
				l-30.19,17.44l61.27,35.4l-73.23,42.31L189.69,188.38z"/>
		</g>
	</g>
</g>
<g id="椭圆_1_拷贝_00000113320789620629410300000014048285132912165809_" class="st0">
	<g id="椭圆_1_拷贝">
		<g>
			
				<ellipse transform="matrix(0.5 -0.866 0.866 0.5 -141.1904 694.5467)" class="st4" cx="530.9" cy="469.55" rx="102.18" ry="58.92"/>
		</g>
	</g>
	<g>
		<path d="M736.42,372.33c0-73.2,47.4-116.1,106.5-116.1c32.1,0,54.3,13.8,68.7,28.5l-23.7,28.2c-11.1-10.5-23.7-18.6-43.5-18.6
			c-37.2,0-62.4,28.8-62.4,76.5c0,48.3,21.9,77.4,65.7,77.4c10.5,0,21.6-3,27.6-8.4v-43.8h-39.3v-36.3h79.2v100.2
			c-15.3,15-41.7,26.7-72.3,26.7C782.62,486.63,736.42,446.43,736.42,372.33z"/>
		<path d="M951.51,372.33c0-73.2,47.4-116.1,106.5-116.1c32.1,0,54.3,13.8,68.7,28.5l-23.7,28.2c-11.1-10.5-23.7-18.6-43.5-18.6
			c-37.2,0-62.4,28.8-62.4,76.5c0,48.3,21.9,77.4,65.7,77.4c10.5,0,21.6-3,27.6-8.4v-43.8h-39.3v-36.3h79.2v100.2
			c-15.3,15-41.7,26.7-72.3,26.7C997.71,486.63,951.51,446.43,951.51,372.33z"/>
		<path d="M1165.71,436.53c0-35.7,29.1-54.6,96.6-61.8c-0.6-16.5-7.8-29.1-28.5-29.1c-15.6,0-30.6,6.9-46.2,16.2l-15.6-29.4
			c19.5-12,43.5-22.2,69.9-22.2c42.6,0,64.5,25.5,64.5,74.1v98.1h-36l-3-18h-1.5c-14.4,12.9-31.2,22.2-50.7,22.2
			C1185.21,486.63,1165.71,465.33,1165.71,436.53z M1262.31,435.63v-33.6c-41.1,4.8-54.6,15.9-54.6,31.2c0,13.2,9.3,18.9,22.2,18.9
			C1242.51,452.13,1251.81,446.13,1262.31,435.63z"/>
		<path d="M1351.41,314.43h36l3.3,22.2h0.9c14.7-14.4,31.8-26.4,54.6-26.4c36.3,0,51.9,25.2,51.9,67.5v104.7h-44.1v-99.3
			c0-26.1-7.2-35.1-23.7-35.1c-13.5,0-22.5,6.6-34.8,18.9v115.5h-44.1V314.43z"/>
		<path d="M1535.31,436.53c0-35.7,29.1-54.6,96.6-61.8c-0.6-16.5-7.8-29.1-28.5-29.1c-15.6,0-30.6,6.9-46.2,16.2l-15.6-29.4
			c19.5-12,43.5-22.2,69.9-22.2c42.6,0,64.5,25.5,64.5,74.1v98.1h-36l-3-18h-1.5c-14.4,12.9-31.2,22.2-50.7,22.2
			C1554.81,486.63,1535.31,465.33,1535.31,436.53z M1631.91,435.63v-33.6c-41.1,4.8-54.6,15.9-54.6,31.2c0,13.2,9.3,18.9,22.2,18.9
			C1612.11,452.13,1621.41,446.13,1631.91,435.63z"/>
		<path d="M1721,435.33v-192.3h44.1v194.1c0,10.2,4.5,13.5,8.7,13.5c1.8,0,3,0,6-0.6l5.4,32.7c-5.1,2.1-12.3,3.9-22.5,3.9
			C1731.8,486.63,1721,466.53,1721,435.33z"/>
		<path d="M1807.1,546.63l8.1-33.9c3,0.9,7.8,2.1,11.7,2.1c17.1,0,26.7-10.8,31.5-25.5l3-10.2l-65.4-164.7h44.4l26.7,78
			c5.1,15,9.3,31.2,14.1,47.4h1.5c3.6-15.6,7.8-31.8,12-47.4l23.1-78h42.3l-59.7,173.1c-14.7,39.6-32.7,62.1-70.2,62.1
			C1820.3,549.63,1813.7,548.43,1807.1,546.63z"/>
		<path d="M1971.8,463.23l20.1-27.9c15,11.4,29.1,18.3,45,18.3c16.8,0,24.3-7.2,24.3-17.7c0-12.6-17.4-18.3-35.1-25.2
			c-21.3-8.1-45-21-45-49.2c0-30,24.3-51.3,62.7-51.3c24.3,0,43.2,9.9,57,20.7l-19.8,26.7c-12-8.4-23.7-14.4-36-14.4
			c-15.3,0-22.5,6.6-22.5,16.2c0,12.3,15.3,16.8,33.3,23.4c22.2,8.4,46.8,19.8,46.8,50.7c0,29.7-23.4,53.1-66.9,53.1
			C2013.2,486.63,1988.6,477.03,1971.8,463.23z"/>
		<path d="M2132.89,263.13c0-14.4,9.9-24,25.5-24c15,0,25.5,9.6,25.5,24c0,14.7-10.5,24-25.5,24
			C2142.8,287.13,2132.89,277.83,2132.89,263.13z M2136.19,314.43h44.1v168h-44.1V314.43z"/>
		<path d="M2211.49,463.23l20.1-27.9c15,11.4,29.1,18.3,45,18.3c16.8,0,24.3-7.2,24.3-17.7c0-12.6-17.4-18.3-35.1-25.2
			c-21.3-8.1-45-21-45-49.2c0-30,24.3-51.3,62.7-51.3c24.3,0,43.2,9.9,57,20.7l-19.8,26.7c-12-8.4-23.7-14.4-36-14.4
			c-15.3,0-22.5,6.6-22.5,16.2c0,12.3,15.3,16.8,33.3,23.4c22.2,8.4,46.8,19.8,46.8,50.7c0,29.7-23.4,53.1-66.9,53.1
			C2252.89,486.63,2228.29,477.03,2211.49,463.23z"/>
	</g>
</g>
</svg>
